<svg xmlns="http://www.w3.org/2000/svg" viewBox="0 0 48 48"><path d="M7 1a4 4 0 0 0-4 4v42h34V5a4 4 0 0 1 4-4Zm14 16h-2a3 3 0 0 1-3-3v-1a3 3 0 0 1 3-3V9a1 1 0 0 1 2 0v1c3 0 3.92 4 2 4a1 1 0 0 1-1-1 1 1 0 0 0-1-1h-2a1 1 0 0 0-1 1v1a1 1 0 0 0 1 1h2a3 3 0 0 1 3 3v1a3 3 0 0 1-3 3v1a1 1 0 0 1-2 0v-1c-3 0-3.92-4-2-4a1 1 0 0 1 1 1 1 1 0 0 0 1 1h2a1 1 0 0 0 1-1v-1a1 1 0 0 0-1-1Zm10 25H9a1 1 0 0 1 0-2h22a1 1 0 0 1 0 2Zm0-5H9a1 1 0 0 1 0-2h22a1 1 0 0 1 0 2Zm0-5H9a1 1 0 0 1 0-2h22a1 1 0 0 1 0 2Z"/><path d="M42 3a3 3 0 0 0-3 3v3h6V6a3 3 0 0 0-3-3Z"/></svg>